# Blender v2.60 (sub 0) OBJ File: ''
# www.blender.org
mtllib crate.mtl
o Mesh_CrateNoParachuteOBJ
v 2.217886 0.376692 2.135386
v 2.217886 0.376692 -1.993121
v 2.217886 4.505199 -1.993120
v 2.217886 4.505198 2.135387
v 2.446312 -0.011000 2.523079
v 2.446312 -0.011000 -2.380812
v 2.456363 0.376692 -1.993121
v 2.456363 0.376692 2.135386
v 2.446312 4.892891 -2.380811
v 2.456363 4.505199 -1.993120
v 2.446312 4.892890 2.523080
v 2.456363 4.505198 2.135387
v 2.213984 0.562080 -2.254272
v 2.213984 2.460768 -0.355569
v 2.354269 2.460768 -0.355569
v 2.354269 0.562080 -2.254272
v 2.354269 2.016654 0.088545
v 2.354269 0.117927 -1.810119
v 2.213984 2.016654 0.088545
v 2.213984 0.117927 -1.810119
v 2.354269 2.444247 0.516139
v 2.354269 4.344291 2.416246
v 2.213984 4.344291 2.416246
v 2.213984 2.444247 0.516139
v 2.354269 2.888361 0.072024
v 2.213984 2.888361 0.072024
v 2.213984 4.788444 1.972093
v 2.354269 4.788444 1.972093
v 2.213984 4.780307 -1.819897
v 2.354269 4.780307 -1.819897
v 2.354269 4.352677 -2.247527
v 2.213984 4.352677 -2.247527
v 2.354269 0.126313 1.978837
v 2.213984 0.126313 1.978837
v 2.213984 0.553943 2.406466
v 2.354269 0.553943 2.406466
v 2.058620 4.664464 2.135387
v 2.058620 4.664465 -1.993120
v -2.069888 4.664465 -1.993120
v -2.069888 4.664464 2.135387
v 2.058620 4.902943 -1.993120
v 2.058620 4.902942 2.135387
v -2.457579 4.892891 -2.380811
v -2.069888 4.902943 -1.993120
v -2.457579 4.892890 2.523080
v -2.069888 4.902942 2.135387
v 1.873232 4.660563 -2.254271
v -0.025456 4.660563 -0.355568
v -0.025456 4.800848 -0.355568
v 1.873232 4.800848 -2.254271
v 0.418658 4.800848 0.088546
v 2.317385 4.800848 -1.810118
v 0.418658 4.660563 0.088546
v 2.317385 4.660563 -1.810118
v -0.008935 4.800848 0.516140
v -1.908979 4.800848 2.416246
v -1.908979 4.660563 2.416246
v -0.008935 4.660563 0.516140
v -0.453050 4.800848 0.072025
v -0.453050 4.660563 0.072025
v -2.353132 4.660563 1.972093
v -2.353132 4.800848 1.972093
v -2.344995 4.660563 -1.819897
v -2.344995 4.800848 -1.819897
v -1.917365 4.800848 -2.247527
v -1.917365 4.660563 -2.247527
v 2.308999 4.800848 1.978838
v 2.308999 4.660563 1.978838
v 1.881369 4.660563 2.406467
v 1.881369 4.800848 2.406467
v 2.058620 0.376692 2.294652
v 2.058620 4.505198 2.294653
v -2.069888 4.505198 2.294653
v -2.069888 0.376692 2.294652
v 2.058620 4.505198 2.533130
v 2.058620 0.376692 2.533129
v -2.069888 4.505198 2.533130
v -2.457579 -0.011000 2.523079
v -2.069888 0.376692 2.533129
v 1.873232 4.766349 2.290751
v -0.025456 2.867646 2.290751
v -0.025456 2.867646 2.431036
v 1.873232 4.766349 2.431036
v 0.418658 2.423532 2.431036
v 2.317385 4.322196 2.431036
v 0.418658 2.423532 2.290751
v 2.317385 4.322196 2.290751
v -0.008935 1.995940 2.431035
v -1.908979 0.095833 2.431035
v -1.908979 0.095833 2.290750
v -0.008935 1.995940 2.290750
v -0.453050 2.440053 2.431036
v -0.453050 2.440053 2.290751
v -2.353132 0.539986 2.290750
v -2.359334 0.538793 2.423640
v -2.344995 4.331975 2.290751
v -2.344995 4.331975 2.431036
v -1.917365 4.759605 2.431036
v -1.917365 4.759605 2.290751
v 2.308999 0.533242 2.431035
v 2.308999 0.533242 2.290750
v 1.881369 0.105612 2.290750
v 1.881369 0.105612 2.431035
v -2.069887 4.505198 -2.152385
v 2.058620 4.505198 -2.152385
v 2.058620 0.376691 -2.152386
v -2.069887 0.376691 -2.152386
v 2.058620 4.505198 -2.390862
v -2.069887 4.505198 -2.390862
v 2.058620 0.376691 -2.390863
v -2.457579 -0.011001 -2.380812
v -2.069887 0.376691 -2.390863
v 2.319771 4.319810 -2.148483
v 0.421068 2.421122 -2.148484
v 0.421068 2.421123 -2.288769
v 2.319771 4.319810 -2.288768
v -0.023046 2.865237 -2.288769
v 1.875618 4.763964 -2.288768
v -0.023046 2.865236 -2.148484
v 1.875618 4.763964 -2.148483
v -0.450639 2.437644 -2.288769
v -2.350745 0.537599 -2.288769
v -2.350745 0.537599 -2.148484
v -0.450639 2.437643 -2.148484
v -0.006525 1.993529 -2.288769
v -0.006525 1.993529 -2.148484
v -1.906593 0.093446 -2.148484
v -1.906593 0.093446 -2.288769
v 1.885397 0.101583 -2.148484
v 1.885397 0.101583 -2.288769
v 2.313028 0.529213 -2.288769
v 2.313028 0.529213 -2.148484
v -1.913337 4.755579 -2.288768
v -1.913337 4.755579 -2.148483
v -2.340966 4.327948 -2.148483
v -2.340966 4.327948 -2.288768
v -2.229153 4.505198 2.135387
v -2.229153 4.505198 -1.993120
v -2.229153 0.376691 -1.993121
v -2.229153 0.376691 2.135386
v -2.467630 4.505198 -1.993120
v -2.467630 4.505198 2.135387
v -2.467630 0.376691 -1.993121
v -2.467630 0.376691 2.135386
v -2.225251 4.319810 -2.254271
v -2.225251 2.421122 -0.355569
v -2.365536 2.421122 -0.355569
v -2.365536 4.319810 -2.254271
v -2.365536 2.865236 0.088545
v -2.365536 4.763964 -1.810118
v -2.225251 2.865236 0.088545
v -2.225251 4.763964 -1.810118
v -2.365536 2.437643 0.516139
v -2.225251 0.537599 2.416245
v -2.225251 2.437643 0.516139
v -2.365536 1.993529 0.072024
v -2.225251 1.993529 0.072024
v -2.225251 0.093446 1.972092
v -2.365536 0.093446 1.972092
v -2.225251 0.101583 -1.819898
v -2.365536 0.101583 -1.819898
v -2.365536 0.529213 -2.247528
v -2.225251 0.529213 -2.247528
v -2.365536 4.755578 1.978838
v -2.225251 4.755578 1.978838
v -2.225251 4.327947 2.406467
v -2.365536 4.327947 2.406467
v -2.069887 0.217426 2.135386
v -2.069887 0.217426 -1.993121
v 2.058621 0.217426 -1.993121
v 2.058621 0.217426 2.135386
v -2.069887 -0.021051 -1.993121
v -2.069887 -0.021051 2.135386
v 2.058621 -0.021051 -1.993121
v 2.058621 -0.021051 2.135386
v -1.884499 0.221328 -2.254272
v 0.014189 0.221328 -0.355569
v 0.014189 0.081043 -0.355569
v -1.884499 0.081043 -2.254272
v -0.429925 0.081043 0.088545
v -2.328652 0.081043 -1.810119
v -0.429925 0.221328 0.088545
v -2.328652 0.221328 -1.810119
v -0.002331 0.081043 0.516139
v 1.897712 0.081043 2.416245
v 1.897712 0.221328 2.416245
v -0.002331 0.221328 0.516139
v 0.441783 0.081043 0.072024
v 0.441783 0.221328 0.072024
v 2.341865 0.221328 1.972092
v 2.341865 0.081043 1.972092
v 2.333729 0.221328 -1.819898
v 2.333729 0.081043 -1.819898
v 1.906098 0.081043 -2.247528
v 1.906098 0.221328 -2.247528
v -2.320266 0.081043 1.978837
v -2.320266 0.221328 1.978837
v -1.892636 0.221328 2.406466
v -1.892636 0.081043 2.406466
vt 0.276510 0.279945
vt 0.890833 0.280145
vt 0.891127 0.895099
vt 0.275833 0.894922
vt 0.193224 0.198974
vt 0.974044 0.198931
vt 0.917594 0.254155
vt 0.249280 0.254297
vt 0.973286 0.979178
vt 0.917659 0.922064
vt 0.193769 0.978923
vt 0.249818 0.922520
vt 0.028615 0.983875
vt 0.028559 0.610987
vt 0.048041 0.610984
vt 0.048096 0.983872
vt 0.135268 0.610971
vt 0.135323 0.983859
vt 0.154749 0.610968
vt 0.154804 0.983856
vt 0.047915 0.201201
vt 0.048491 0.574537
vt 0.029001 0.574567
vt 0.028425 0.201230
vt 0.135183 0.201066
vt 0.154674 0.201036
vt 0.155250 0.574372
vt 0.135760 0.574401
vt 0.962849 0.167753
vt 0.547648 0.167643
vt 0.547654 0.145874
vt 0.962854 0.145984
vt 0.547685 0.052027
vt 0.962880 0.052139
vt 0.547691 0.030258
vt 0.962886 0.030370
vt 0.450194 0.145834
vt 0.450237 0.051990
vt 0.035398 0.051771
vt 0.035410 0.030002
vt 0.450248 0.030221
vt 0.450182 0.167603
vt 0.035338 0.167385
vt 0.035349 0.145616
vn 0.577349 0.577349 -0.577349
vn 0.577349 0.577349 0.577349
vn 0.577349 -0.577349 0.577349
vn 0.577349 -0.577349 -0.577349
vn 0.910794 0.291910 0.291910
vn 0.910794 0.291910 -0.291910
vn 0.910794 -0.291910 0.291910
vn 0.910794 -0.291910 -0.291910
vn 0.000000 0.707083 -0.707083
vn 0.000000 0.000000 -1.000000
vn 0.904508 0.000000 -0.426374
vn 0.707083 0.499985 -0.499985
vn 0.904508 -0.426374 0.000000
vn 0.707083 -0.499985 0.499985
vn 0.000000 -1.000000 0.000000
vn 0.000000 -0.707083 0.707114
vn 0.904508 0.000000 0.426374
vn 0.000000 -0.707114 0.707083
vn 0.000000 0.000000 1.000000
vn 0.904508 0.426374 0.000000
vn 0.000000 1.000000 0.000000
vn 0.000000 0.707083 0.707083
vn 0.707083 0.499985 0.499985
vn 0.707083 -0.499985 -0.499985
vn 0.000000 -0.707114 -0.707083
vn 0.000000 -0.707083 -0.707114
vn -0.577349 0.577349 -0.577349
vn -0.577349 0.577349 0.577349
vn -0.291910 0.910794 0.291910
vn -0.291910 0.910794 -0.291910
vn 0.291910 0.910794 0.291910
vn 0.291910 0.910794 -0.291910
vn -0.707083 0.000000 -0.707083
vn 0.000000 0.904508 -0.426374
vn -0.499985 0.707083 -0.499985
vn 0.426374 0.904508 0.000000
vn 0.499985 0.707083 0.499985
vn 1.000000 0.000000 0.000000
vn 0.707083 0.000000 0.707114
vn 0.000000 0.904508 0.426374
vn 0.707114 0.000000 0.707083
vn -0.426374 0.904508 0.000000
vn -1.000000 0.000000 0.000000
vn -0.707083 0.000000 0.707083
vn -0.499985 0.707083 0.499985
vn 0.499985 0.707083 -0.499985
vn 0.707114 0.000000 -0.707083
vn 0.707083 0.000000 -0.707114
vn -0.577349 -0.577349 0.577349
vn -0.291910 -0.291910 0.910794
vn -0.291910 0.291910 0.910794
vn 0.291910 -0.291910 0.910794
vn 0.291910 0.291910 0.910794
vn -0.707083 0.707083 0.000000
vn 0.000000 0.426374 0.904508
vn -0.499985 0.499985 0.707083
vn 0.426374 0.000000 0.904508
vn 0.499985 -0.499985 0.707083
vn 0.707083 -0.707114 0.000000
vn -0.001526 -0.425611 0.904874
vn 0.496506 -0.497879 0.711020
vn 0.707114 -0.707083 0.000000
vn -0.428632 0.000702 0.903470
vn -0.999939 0.000275 -0.009156
vn -0.706565 0.707511 -0.012940
vn -0.607685 0.506821 0.611408
vn -0.707083 -0.707083 0.000000
vn -0.499985 -0.499985 0.707083
vn 0.499985 0.499985 0.707083
vn 0.707114 0.707083 0.000000
vn 0.707083 0.707114 0.000000
vn -0.577349 -0.577349 -0.577349
vn -0.291910 -0.291910 -0.910794
vn 0.291910 -0.291910 -0.910794
vn -0.291910 0.291910 -0.910794
vn 0.291910 0.291910 -0.910794
vn 0.707083 -0.707083 0.000000
vn 0.426374 0.000000 -0.904508
vn 0.499985 -0.499985 -0.707083
vn 0.000000 0.426374 -0.904508
vn -0.499985 0.499985 -0.707083
vn -0.707114 0.707083 0.000000
vn -0.426374 0.000000 -0.904508
vn -0.707083 0.707114 0.000000
vn 0.000000 -0.426374 -0.904508
vn -0.499985 -0.499985 -0.707083
vn 0.499985 0.499985 -0.707083
vn -0.910794 -0.291910 0.291910
vn -0.910794 -0.291910 -0.291910
vn -0.910794 0.291910 0.291910
vn -0.910794 0.291910 -0.291910
vn 0.000000 -0.707083 -0.707083
vn -0.904508 0.000000 -0.426374
vn -0.707083 -0.499985 -0.499985
vn -0.904508 0.426374 0.000000
vn -0.707083 0.499985 0.499985
vn 0.000000 0.707083 0.707114
vn -0.903104 0.000671 0.429365
vn 0.022095 0.707755 0.706076
vn 0.015625 0.000458 0.999847
vn -0.904813 -0.425733 0.001282
vn -0.710379 -0.498215 -0.497085
vn 0.000000 -0.707083 0.707083
vn -0.707083 -0.499985 0.499985
vn -0.707083 0.499985 -0.499985
vn 0.000000 0.707114 -0.707083
vn 0.000000 0.707083 -0.707114
vn 0.291910 -0.910794 0.291910
vn 0.291910 -0.910794 -0.291910
vn -0.291910 -0.910794 0.291910
vn -0.291910 -0.910794 -0.291910
vn 0.707083 0.000000 -0.707083
vn 0.000000 -0.904508 -0.426374
vn 0.499985 -0.707083 -0.499985
vn -0.426374 -0.904508 0.000000
vn -0.499985 -0.707083 0.499985
vn -0.707083 0.000000 0.707114
vn 0.000000 -0.904508 0.426374
vn -0.707114 0.000000 0.707083
vn 0.426374 -0.904508 0.000000
vn 0.707083 0.000000 0.707083
vn 0.499985 -0.707083 0.499985
vn -0.499985 -0.707083 -0.499985
vn -0.707114 0.000000 -0.707083
vn -0.707083 0.000000 -0.707114
usemtl 
s 1
f 1/1/1 2/2/2 3/3/3
f 1/1/1 3/3/3 4/4/4
f 5/5/3 6/6/4 7/7/5
f 5/5/3 7/7/5 8/8/6
f 6/6/4 9/9/1 10/10/7
f 6/6/4 10/10/7 7/7/5
f 9/9/1 11/11/2 12/12/8
f 9/9/1 12/12/8 10/10/7
f 11/11/2 5/5/3 8/8/6
f 11/11/2 8/8/6 12/12/8
f 2/2/2 1/1/1 8/8/6
f 2/2/2 8/8/6 7/7/5
f 7/7/5 10/10/7 3/3/3
f 7/7/5 3/3/3 2/2/2
f 10/10/7 12/12/8 4/4/4
f 10/10/7 4/4/4 3/3/3
f 1/1/1 4/4/4 12/12/8
f 1/1/1 12/12/8 8/8/6
f 13/13/9 14/14/10 15/15/11
f 13/13/9 15/15/11 16/16/12
f 16/16/12 15/15/11 17/17/13
f 16/16/12 17/17/13 18/18/14
f 18/18/14 17/17/13 19/19/15
f 18/18/14 19/19/15 20/20/16
f 21/21/17 22/22/14 23/23/18
f 21/21/17 23/23/18 24/24/19
f 25/25/20 26/26/21 27/27/9
f 25/25/20 27/27/9 28/28/12
f 21/21/17 25/25/20 28/28/12
f 21/21/17 28/28/12 22/22/14
f 29/29/22 26/30/21 25/31/20
f 29/29/22 25/31/20 30/32/23
f 30/32/23 25/31/20 15/33/11
f 30/32/23 15/33/11 31/34/24
f 31/34/24 15/33/11 14/35/10
f 31/34/24 14/35/10 32/36/25
f 15/33/11 25/31/20 21/37/17
f 15/33/11 21/37/17 17/38/13
f 17/38/13 33/39/24 34/40/26
f 17/38/13 34/40/26 19/41/15
f 21/37/17 24/42/19 35/43/22
f 21/37/17 35/43/22 36/44/23
f 17/38/13 21/37/17 36/44/23
f 17/38/13 36/44/23 33/39/24
f 37/1/27 38/2/28 39/3/2
f 37/1/27 39/3/2 40/4/1
f 11/5/2 9/6/1 41/7/29
f 11/5/2 41/7/29 42/8/30
f 9/6/1 43/9/27 44/10/31
f 9/6/1 44/10/31 41/7/29
f 43/9/27 45/11/28 46/12/32
f 43/9/27 46/12/32 44/10/31
f 45/11/28 11/5/2 42/8/30
f 45/11/28 42/8/30 46/12/32
f 42/8/30 41/7/29 38/2/28
f 42/8/30 38/2/28 37/1/27
f 41/7/29 44/10/31 39/3/2
f 41/7/29 39/3/2 38/2/28
f 44/10/31 46/12/32 40/4/1
f 44/10/31 40/4/1 39/3/2
f 46/12/32 42/8/30 37/1/27
f 46/12/32 37/1/27 40/4/1
f 47/13/33 48/14/10 49/15/34
f 47/13/33 49/15/34 50/16/35
f 50/16/35 49/15/34 51/17/36
f 50/16/35 51/17/36 52/18/37
f 52/18/37 51/17/36 53/19/38
f 52/18/37 53/19/38 54/20/39
f 55/21/40 56/22/37 57/23/41
f 55/21/40 57/23/41 58/24/19
f 59/25/42 60/26/43 61/27/33
f 59/25/42 61/27/33 62/28/35
f 55/21/40 59/25/42 62/28/35
f 55/21/40 62/28/35 56/22/37
f 63/29/44 60/30/43 59/31/42
f 63/29/44 59/31/42 64/32/45
f 64/32/45 59/31/42 49/33/34
f 64/32/45 49/33/34 65/34/46
f 65/34/46 49/33/34 48/35/10
f 65/34/46 48/35/10 66/36/47
f 49/33/34 59/31/42 55/37/40
f 49/33/34 55/37/40 51/38/36
f 51/38/36 67/39/46 68/40/48
f 51/38/36 68/40/48 53/41/38
f 55/37/40 58/42/19 69/43/44
f 55/37/40 69/43/44 70/44/45
f 51/38/36 55/37/40 70/44/45
f 51/38/36 70/44/45 67/39/46
f 71/1/28 72/2/49 73/3/3
f 71/1/28 73/3/3 74/4/2
f 5/5/3 11/6/2 75/7/50
f 5/5/3 75/7/50 76/8/51
f 11/6/2 45/9/28 77/10/52
f 11/6/2 77/10/52 75/7/50
f 45/9/28 78/11/49 79/12/53
f 45/9/28 79/12/53 77/10/52
f 78/11/49 5/5/3 76/8/51
f 78/11/49 76/8/51 79/12/53
f 76/8/51 75/7/50 72/2/49
f 76/8/51 72/2/49 71/1/28
f 75/7/50 77/10/52 73/3/3
f 75/7/50 73/3/3 72/2/49
f 77/10/52 79/12/53 74/4/2
f 77/10/52 74/4/2 73/3/3
f 79/12/53 76/8/51 71/1/28
f 79/12/53 71/1/28 74/4/2
f 80/13/54 81/14/21 82/15/55
f 80/13/54 82/15/55 83/16/56
f 83/16/56 82/15/55 84/17/57
f 83/16/56 84/17/57 85/18/58
f 85/18/58 84/17/57 86/19/38
f 85/18/58 86/19/38 87/20/59
f 88/21/60 89/22/61 90/23/62
f 88/21/60 90/23/62 91/24/15
f 92/25/63 93/26/64 94/27/65
f 92/25/63 94/27/65 95/28/66
f 88/21/60 92/25/63 95/28/66
f 88/21/60 95/28/66 89/22/61
f 96/29/67 93/30/64 92/31/63
f 96/29/67 92/31/63 97/32/68
f 97/32/68 92/31/63 82/33/55
f 97/32/68 82/33/55 98/34/69
f 98/34/69 82/33/55 81/35/21
f 98/34/69 81/35/21 99/36/70
f 82/33/55 92/31/63 88/37/60
f 82/33/55 88/37/60 84/38/57
f 84/38/57 100/39/69 101/40/71
f 84/38/57 101/40/71 86/41/38
f 88/37/60 91/42/15 102/43/67
f 88/37/60 102/43/67 103/44/68
f 84/38/57 88/37/60 103/44/68
f 84/38/57 103/44/68 100/39/69
f 104/1/4 105/2/72 106/3/27
f 104/1/4 106/3/27 107/4/1
f 43/5/27 9/6/1 108/7/73
f 43/5/27 108/7/73 109/8/74
f 9/6/1 6/9/4 110/10/75
f 9/6/1 110/10/75 108/7/73
f 6/9/4 111/11/72 112/12/76
f 6/9/4 112/12/76 110/10/75
f 111/11/72 43/5/27 109/8/74
f 111/11/72 109/8/74 112/12/76
f 109/8/74 108/7/73 105/2/72
f 109/8/74 105/2/72 104/1/4
f 108/7/73 110/10/75 106/3/27
f 108/7/73 106/3/27 105/2/72
f 110/10/75 112/12/76 107/4/1
f 110/10/75 107/4/1 106/3/27
f 112/12/76 109/8/74 104/1/4
f 112/12/76 104/1/4 107/4/1
f 113/13/77 114/14/38 115/15/78
f 113/13/77 115/15/78 116/16/79
f 116/16/79 115/15/78 117/17/80
f 116/16/79 117/17/80 118/18/81
f 118/18/81 117/17/80 119/19/21
f 118/18/81 119/19/21 120/20/82
f 121/21/83 122/22/81 123/23/84
f 121/21/83 123/23/84 124/24/43
f 125/25/85 126/26/15 127/27/77
f 125/25/85 127/27/77 128/28/79
f 121/21/83 125/25/85 128/28/79
f 121/21/83 128/28/79 122/22/81
f 129/29/67 126/30/15 125/31/85
f 129/29/67 125/31/85 130/32/86
f 130/32/86 125/31/85 115/33/78
f 130/32/86 115/33/78 131/34/87
f 131/34/87 115/33/78 114/35/38
f 131/34/87 114/35/38 132/36/71
f 115/33/78 125/31/85 121/37/83
f 115/33/78 121/37/83 117/38/80
f 117/38/80 133/39/87 134/40/70
f 117/38/80 134/40/70 119/41/21
f 121/37/83 124/42/43 135/43/67
f 121/37/83 135/43/67 136/44/86
f 117/38/80 121/37/83 136/44/86
f 117/38/80 136/44/86 133/39/87
f 137/1/72 138/2/49 139/3/28
f 137/1/72 139/3/28 140/4/27
f 45/5/28 43/6/27 141/7/88
f 45/5/28 141/7/88 142/8/89
f 43/6/27 111/9/72 143/10/90
f 43/6/27 143/10/90 141/7/88
f 111/9/72 78/11/49 144/12/91
f 111/9/72 144/12/91 143/10/90
f 78/11/49 45/5/28 142/8/89
f 78/11/49 142/8/89 144/12/91
f 142/8/89 141/7/88 138/2/49
f 142/8/89 138/2/49 137/1/72
f 141/7/88 143/10/90 139/3/28
f 141/7/88 139/3/28 138/2/49
f 143/10/90 144/12/91 140/4/27
f 143/10/90 140/4/27 139/3/28
f 144/12/91 142/8/89 137/1/72
f 144/12/91 137/1/72 140/4/27
f 145/13/92 146/14/10 147/15/93
f 145/13/92 147/15/93 148/16/94
f 148/16/94 147/15/93 149/17/95
f 148/16/94 149/17/95 150/18/96
f 150/18/96 149/17/95 151/19/21
f 150/18/96 151/19/21 152/20/97
f 153/21/98 95/22/66 154/23/99
f 153/21/98 154/23/99 155/24/100
f 156/25/101 157/26/15 158/27/92
f 156/25/101 158/27/92 159/28/102
f 153/21/98 156/25/101 159/28/102
f 153/21/98 159/28/102 95/22/66
f 160/29/103 157/30/15 156/31/101
f 160/29/103 156/31/101 161/32/104
f 161/32/104 156/31/101 147/33/93
f 161/32/104 147/33/93 162/34/105
f 162/34/105 147/33/93 146/35/10
f 162/34/105 146/35/10 163/36/106
f 147/33/93 156/31/101 153/37/98
f 147/33/93 153/37/98 149/38/95
f 149/38/95 164/39/105 165/40/107
f 149/38/95 165/40/107 151/41/21
f 153/37/98 155/42/100 166/43/103
f 153/37/98 166/43/103 167/44/104
f 149/38/95 153/37/98 167/44/104
f 149/38/95 167/44/104 164/39/105
f 168/1/4 169/2/3 170/3/49
f 168/1/4 170/3/49 171/4/72
f 78/5/49 111/6/72 172/7/108
f 78/5/49 172/7/108 173/8/109
f 111/6/72 6/9/4 174/10/110
f 111/6/72 174/10/110 172/7/108
f 6/9/4 5/11/3 175/12/111
f 6/9/4 175/12/111 174/10/110
f 5/11/3 78/5/49 173/8/109
f 5/11/3 173/8/109 175/12/111
f 173/8/109 172/7/108 169/2/3
f 173/8/109 169/2/3 168/1/4
f 172/7/108 174/10/110 170/3/49
f 172/7/108 170/3/49 169/2/3
f 174/10/110 175/12/111 171/4/72
f 174/10/110 171/4/72 170/3/49
f 175/12/111 173/8/109 168/1/4
f 175/12/111 168/1/4 171/4/72
f 176/13/112 177/14/10 178/15/113
f 176/13/112 178/15/113 179/16/114
f 179/16/114 178/15/113 180/17/115
f 179/16/114 180/17/115 181/18/116
f 181/18/116 180/17/115 182/19/43
f 181/18/116 182/19/43 183/20/117
f 184/21/118 185/22/116 186/23/119
f 184/21/118 186/23/119 187/24/19
f 188/25/120 189/26/38 190/27/112
f 188/25/120 190/27/112 191/28/114
f 184/21/118 188/25/120 191/28/114
f 184/21/118 191/28/114 185/22/116
f 192/29/121 189/30/38 188/31/120
f 192/29/121 188/31/120 193/32/122
f 193/32/122 188/31/120 178/33/113
f 193/32/122 178/33/113 194/34/123
f 194/34/123 178/33/113 177/35/10
f 194/34/123 177/35/10 195/36/124
f 178/33/113 188/31/120 184/37/118
f 178/33/113 184/37/118 180/38/115
f 180/38/115 196/39/123 197/40/125
f 180/38/115 197/40/125 182/41/43
f 184/37/118 187/42/19 198/43/121
f 184/37/118 198/43/121 199/44/122
f 180/38/115 184/37/118 199/44/122
f 180/38/115 199/44/122 196/39/123
