# Blender v2.60 (sub 0) OBJ File: 'dim_arboretum.blend'
# www.blender.org
mtllib fern3.mtl
o AthyriumFelix-FeminaS_LadyFernS
v 1.367245 0.441785 2.570405
v 1.367245 0.307446 3.370405
v 0.567245 0.203224 3.370405
v 0.567245 0.307446 2.570405
v 1.000000 0.000000 3.000000
vt 1.000000 0.983605
vt 0.517648 0.555448
vt 0.994973 0.007888
vt 0.000000 0.000000
vt 0.037615 0.983606
vn 0.245186 0.941740 -0.230201
vn -0.132084 0.988952 0.067202
vn 0.174169 0.875332 0.451003
vn -0.430830 0.787194 0.441206
vn -0.488968 0.844966 -0.216529
usemtl Material.TF.66049_Fern_5.png
s 1
f 3/1/1 5/2/2 4/3/3
f 5/2/2 1/4/4 4/3/3
f 1/4/4 5/2/2 2/5/5
f 2/5/5 5/2/2 3/1/1
