# Blender v2.60 (sub 0) OBJ File: 'dim_arboretum.blend'
# www.blender.org
mtllib woodwardiaaeolatola.mtl
o WoodwardiaAeolata_NarrowleafChainfern
v 0.674693 -0.000000 1.570223
v 1.325307 0.000000 2.429777
v 0.023580 0.750808 2.103175
v 0.674194 0.750808 2.962728
v 0.428183 0.441532 1.756811
v 1.078797 0.441532 2.616365
v 0.676812 -0.000000 2.226299
v 1.323188 0.000000 1.773701
v 1.047558 0.452598 2.755779
v 1.693934 0.452598 2.303182
v 0.806611 0.323188 2.411672
v 1.452988 0.323188 1.959074
v 1.160978 -0.000000 2.442282
v 0.839022 0.000000 1.557718
v 1.885571 0.539927 2.178552
v 1.563615 0.539927 1.293987
v 1.414660 0.385548 2.349949
v 1.092705 0.385548 1.465385
v 1.364696 -0.000000 1.867262
v 0.635304 0.000000 2.132738
v 1.147230 0.445211 1.269779
v 0.417839 0.445211 1.535256
v 1.288560 0.317914 1.658081
v 0.559169 0.317914 1.923558
vt 0.970703 0.000000
vt 0.970703 0.500000
vt -0.029297 0.500000
vt -0.029297 0.000000
vt 0.970703 1.000000
vt -0.029297 1.000000
vn 0.653127 0.573565 -0.494369
vn 0.541795 0.733634 -0.410077
vn 0.537522 0.738578 -0.406873
vn 0.400922 0.864376 -0.303446
vn -0.469832 0.573565 -0.670980
vn -0.337626 0.808374 -0.482162
vn -0.168859 0.955657 -0.241157
vn -0.769738 0.573565 0.280160
vn -0.553117 0.808374 0.201300
vn -0.276650 0.955657 0.100681
vn 0.280160 0.573565 0.769738
vn 0.201300 0.808374 0.553117
vn 0.100681 0.955657 0.276650
usemtl Material.TF.66049_Fern_2.png
s 1
f 1/1/1 5/2/2 6/3/3
f 1/1/1 6/3/3 2/4/1
f 5/2/2 3/5/4 4/6/4
f 5/2/2 4/6/4 6/3/3
f 7/4/5 11/3/6 12/2/6
f 7/4/5 12/2/6 8/1/5
f 11/3/6 9/6/7 10/5/7
f 11/3/6 10/5/7 12/2/6
f 13/4/8 17/3/9 18/2/9
f 13/4/8 18/2/9 14/1/8
f 17/3/9 15/6/10 16/5/10
f 17/3/9 16/5/10 18/2/9
f 19/1/11 23/2/12 24/3/12
f 19/1/11 24/3/12 20/4/11
f 23/2/12 21/5/13 22/6/13
f 23/2/12 22/6/13 24/3/12
