# Blender v2.60 (sub 0) OBJ File: ''
# www.blender.org
mtllib leaves.mtl
o Mesh.030_Mesh.011_Mesh.023_Mes
v -2.457265 8.147633 -1.022233
v -4.146196 6.026051 1.014862
v -0.389904 3.434588 1.430216
v 1.299027 5.556170 -0.606878
vt 1.000000 1.000000
vt 0.000000 1.000000
vt 0.000000 0.000000
vt 1.000000 0.000000
vn 0.282969 0.537483 0.794381
vn 0.282970 0.537483 0.794381
usemtl 100
s off
f 1/1/1 2/2/1 3/3/1
f 4/4/2 1/1/2 3/3/2
o Mesh.029_Mesh_Mesh.024_Mesh.01
v -0.896024 10.225406 -4.711973
v -2.822204 10.923379 -2.009007
v 0.034866 8.519810 0.647662
v 1.961046 7.821827 -2.055302
vt 1.000000 1.000000
vt 0.000000 1.000000
vt 0.000000 0.000000
vt 1.000000 0.000000
vn 0.537330 0.826148 0.169579
vn 0.537332 0.826146 0.169578
usemtl 100
s off
f 5/5/3 6/6/3 7/7/3
f 8/8/4 5/5/4 7/7/4
o Mesh.028_Mesh.015_Mesh.018_Mes
v -0.947728 11.975802 -3.073370
v -2.770173 9.173793 -3.648518
v 0.086897 6.770221 -0.991847
v 1.909342 9.572230 -0.416701
vt 1.000000 1.000000
vt 0.000000 1.000000
vt 0.000000 0.000000
vt 1.000000 0.000000
vn -0.567917 0.205794 0.796944
vn -0.567916 0.205794 0.796944
usemtl 100
s off
f 9/9/5 10/10/5 11/11/5
f 12/12/6 9/9/6 11/11/6
o Mesh.027_Mesh.008_Mesh.017_Mes
v -1.211400 12.703254 2.292265
v 1.054611 10.590227 3.671989
v 0.124095 7.480414 0.437622
v -2.141916 9.593442 -0.942111
vt 1.000000 1.000000
vt 0.000000 1.000000
vt 0.000000 0.000000
vt 1.000000 0.000000
vn 0.715813 0.388969 -0.579927
vn 0.715814 0.388969 -0.579925
usemtl 100
s off
f 13/13/7 14/14/7 15/15/7
f 16/16/8 13/13/8 15/15/8
o Mesh.026_Mesh.009_Mesh.025_Mes
v 2.104976 10.236214 3.847227
v -1.086734 9.656856 2.856919
v 0.389849 6.378866 0.015714
v 3.581552 6.958227 1.006021
vt 1.000000 1.000000
vt 0.000000 1.000000
vt 0.000000 0.000000
vt 1.000000 0.000000
vn -0.102957 -0.677565 0.728221
usemtl 100
s off
f 17/17/9 18/18/9 19/19/9
f 20/20/9 17/17/9 19/19/9
o Mesh.025_Mesh.010_Mesh.005_Mes
v -1.795660 8.582830 2.529244
v -0.949903 6.439582 5.018132
v 1.356335 3.860519 2.013535
v 0.510579 6.003758 -0.475353
vt 1.000000 1.000000
vt 0.000000 1.000000
vt 0.000000 0.000000
vt 1.000000 0.000000
vn 0.827357 0.532830 0.177688
vn 0.827357 0.532830 0.177686
usemtl 100
s off
f 21/21/10 22/22/10 23/23/10
f 24/24/11 21/21/11 23/23/11
o Mesh.024_Mesh.024_Mesh.015_Mes
v 1.568724 7.158517 3.153297
v -0.812352 9.098384 1.714275
v 1.618493 9.201574 -2.168799
v 3.999569 7.261717 -0.729777
vt 1.000000 1.000000
vt 0.000000 1.000000
vt 0.000000 0.000000
vt 1.000000 0.000000
vn -0.475116 -0.819978 -0.319218
vn -0.475114 -0.819980 -0.319219
usemtl 100
s off
f 25/25/12 26/26/12 27/27/12
f 28/28/13 25/25/13 27/27/13
o Mesh.023_Mesh.026_Mesh.002_Mes
v 1.404377 6.758814 -3.190614
v -1.965532 6.847007 -2.817395
v -1.617554 4.246075 0.939197
v 1.752354 4.157887 0.565978
vt 1.000000 1.000000
vt 0.000000 1.000000
vt 0.000000 0.000000
vt 1.000000 0.000000
vn 0.083776 0.822895 0.561983
vn 0.083774 0.822896 0.561983
usemtl 100
s off
f 29/29/14 30/30/14 31/31/14
f 32/32/15 29/29/15 31/31/15
o Mesh.022_Mesh.023_Mesh.004_Mes
v -0.138142 8.198889 -2.051126
v -0.422279 5.407907 -3.957184
v -0.074301 2.806979 -0.200594
v 0.209835 5.597959 1.705466
vt 1.000000 1.000000
vt 0.000000 1.000000
vt 0.000000 0.000000
vt 1.000000 0.000000
vn -0.993587 0.026002 0.110040
usemtl 100
s off
f 33/33/16 34/34/16 35/35/16
f 36/36/16 33/33/16 35/35/16
o Mesh.021_Mesh.019_Mesh.026_Mes
v 0.841162 7.521662 1.693242
v 0.225442 5.098032 -0.598104
v -0.986788 8.292665 -3.651420
v -0.371068 10.716295 -1.360072
vt 1.000000 1.000000
vt 0.000000 1.000000
vt 0.000000 0.000000
vt 1.000000 0.000000
vn 0.947133 0.057757 -0.315601
usemtl 100
s off
f 37/37/17 38/38/17 39/39/17
f 40/40/17 37/37/17 39/39/17
o Mesh.020_Mesh.013_Mesh.012_Mes
v 2.163793 11.685737 -0.807866
v 3.445175 10.316920 2.018397
v -0.384820 7.861392 2.565595
v -1.666202 9.230210 -0.260667
vt 1.000000 1.000000
vt 0.000000 1.000000
vt 0.000000 0.000000
vt 1.000000 0.000000
vn 0.398343 -0.741598 -0.539773
vn 0.398342 -0.741598 -0.539774
usemtl 100
s off
f 41/41/18 42/42/18 43/43/18
f 44/44/19 41/41/19 43/43/19
o Mesh.019_Mesh.001_Mesh.028_Mes
v 2.814649 8.200877 1.161628
v 3.838839 6.136974 -1.327288
v 0.304196 3.349529 -0.470337
v -0.719993 5.413434 2.018580
vt 1.000000 1.000000
vt 0.000000 1.000000
vt 0.000000 0.000000
vt 1.000000 0.000000
vn -0.560192 0.509578 -0.653081
usemtl 100
s off
f 45/45/20 46/46/20 47/47/20
f 48/48/20 45/45/20 47/47/20
o Mesh.018_Mesh.028_Mesh.013_Mes
v 0.334715 8.797590 4.587598
v 0.683907 11.095665 2.117722
v 2.160490 7.817677 -0.723484
v 1.811298 5.519611 1.746394
vt 1.000000 1.000000
vt 0.000000 1.000000
vt 0.000000 0.000000
vt 1.000000 0.000000
vn -0.941045 -0.170820 -0.291983
vn -0.941045 -0.170821 -0.291983
usemtl 100
s off
f 49/49/21 50/50/21 51/51/21
f 52/52/22 49/49/22 51/51/22
o Mesh.017_Mesh.002_Mesh.019_Mes
v 2.128936 12.258340 1.520765
v 3.479971 9.743090 -0.309969
v -0.350024 7.287562 0.237230
v -1.701066 9.802814 2.067958
vt 1.000000 1.000000
vt 0.000000 1.000000
vt 0.000000 0.000000
vt 1.000000 0.000000
vn -0.377805 0.403584 -0.833296
vn -0.377803 0.403584 -0.833298
usemtl 100
s off
f 53/53/23 54/54/23 55/55/23
f 56/56/24 53/53/24 55/55/24
o Mesh.016_Mesh.021_Mesh.008_Mes
v 0.636694 9.662380 1.718066
v 0.982229 6.616910 0.265808
v -3.415478 6.729622 -1.016902
v -3.761014 9.775097 0.435355
vt 1.000000 1.000000
vt 0.000000 1.000000
vt 0.000000 0.000000
vt 1.000000 0.000000
vn 0.261885 0.439451 -0.859244
vn 0.261885 0.439450 -0.859244
usemtl 100
s off
f 57/57/25 58/58/25 59/59/25
f 60/60/26 57/57/26 59/59/26
o Mesh.015_Mesh.003_Mesh.007_Mes
v 2.952787 8.161296 1.740429
v 1.960519 6.432976 4.484822
v -0.525874 3.645535 1.830403
v 0.466395 5.373854 -0.913988
vt 1.000000 1.000000
vt 0.000000 1.000000
vt 0.000000 0.000000
vt 1.000000 0.000000
vn 0.787395 -0.608523 -0.098534
vn 0.787395 -0.608523 -0.098533
usemtl 100
s off
f 61/61/27 62/62/27 63/63/27
f 64/64/28 61/61/28 63/63/28
o Mesh.014_Mesh.017_Mesh.029_Mes
v 1.183675 9.518897 2.974547
v -0.427750 6.737813 1.891865
v 2.003095 6.841004 -1.991208
v 3.614520 9.622093 -0.908528
vt 1.000000 1.000000
vt 0.000000 1.000000
vt 0.000000 0.000000
vt 1.000000 0.000000
vn 0.702037 -0.571951 0.424283
vn 0.702038 -0.571950 0.424283
usemtl 100
s off
f 65/65/29 66/66/29 67/67/29
f 68/68/30 65/65/30 67/67/30
o Mesh.013_Mesh.005_Mesh.021_Mes
v 2.067777 9.249290 4.048118
v 0.546516 11.318542 1.832872
v -2.439170 8.003555 0.786700
v -0.917909 5.934303 3.001954
vt 1.000000 1.000000
vt 0.000000 1.000000
vt 0.000000 0.000000
vt 1.000000 0.000000
vn -0.611790 0.323163 0.721996
vn -0.611790 0.323165 0.721995
usemtl 100
s off
f 69/69/31 70/70/31 71/71/31
f 72/72/32 69/69/32 71/71/32
o Mesh.012_Mesh.016_Mesh.001_Mes
v -1.648154 12.141061 0.700737
v -4.434710 10.363954 -0.061061
v -1.846904 7.182728 -2.105813
v 0.939653 8.959833 -1.344008
vt 1.000000 1.000000
vt 0.000000 1.000000
vt 0.000000 0.000000
vt 1.000000 0.000000
vn 0.077873 -0.493457 0.866277
vn 0.077871 -0.493457 0.866277
usemtl 100
s off
f 73/73/33 74/74/33 75/75/33
f 76/76/34 73/73/34 75/75/34
o Mesh.011_Mesh.022_Mesh.014_Mes
v 1.135580 12.306981 1.998580
v -1.292216 10.987730 3.965495
v -2.222732 7.877921 0.731120
v 0.205064 9.197169 -1.235788
vt 1.000000 1.000000
vt 0.000000 1.000000
vt 0.000000 0.000000
vt 1.000000 0.000000
vn 0.668114 -0.623007 0.406800
vn 0.668113 -0.623007 0.406801
usemtl 100
s off
f 77/77/35 78/78/35 79/79/35
f 80/80/36 77/77/36 79/79/36
o Mesh.010_Mesh.027_Mesh.003_Mes
v 2.850446 11.856230 -1.353960
v 1.503041 9.506610 -3.395314
v -0.379589 7.434495 0.232346
v 0.967817 9.784111 2.273707
vt 1.000000 1.000000
vt 0.000000 1.000000
vt 0.000000 0.000000
vt 1.000000 0.000000
vn -0.820599 0.561780 -0.104975
vn -0.820599 0.561781 -0.104973
usemtl 100
s off
f 81/81/37 82/82/37 83/83/37
f 84/84/38 81/81/38 83/83/38
o Mesh.009_Mesh.012_Mesh_Mesh.01
v 0.785167 11.634720 -2.552765
v 3.568360 9.729355 -2.196729
v 1.685730 7.657239 1.430938
v -1.097463 9.562608 1.074901
vt 1.000000 1.000000
vt 0.000000 1.000000
vt 0.000000 0.000000
vt 1.000000 0.000000
vn -0.397270 -0.692765 -0.601875
vn -0.397271 -0.692764 -0.601875
usemtl 100
s off
f 85/85/39 86/86/39 87/87/39
f 88/88/40 85/85/40 87/87/40
o Mesh.008_Mesh.004_Mesh.010_Mes
v -3.173531 12.088702 -1.149145
v -2.909419 10.415063 1.788974
v -0.321613 7.233837 -0.255778
v -0.585725 8.907478 -3.193889
vt 1.000000 1.000000
vt 0.000000 1.000000
vt 0.000000 0.000000
vt 1.000000 0.000000
vn 0.821591 0.523963 0.224611
vn 0.821591 0.523963 0.224612
usemtl 100
s off
f 89/89/41 90/90/41 91/91/41
f 92/92/42 89/89/42 91/91/42
o Mesh.007_Mesh.006_Mesh.022_Mes
v 0.365128 7.394271 2.448501
v 1.253348 8.884735 -0.465763
v -3.144360 8.997446 -1.748481
v -4.032586 7.506983 1.165784
vt 1.000000 1.000000
vt 0.000000 1.000000
vt 0.000000 0.000000
vt 1.000000 0.000000
vn -0.101879 0.897930 0.428184
vn -0.101878 0.897931 0.428184
usemtl 100
s off
f 93/93/43 94/94/43 95/95/43
f 96/96/44 93/93/44 95/95/44
o Mesh.006_Mesh.025_Mesh.009_Mes
v -1.072682 6.211936 1.082179
v 2.139665 6.407830 0.011764
v 0.927435 9.602459 -3.041551
v -2.284918 9.406569 -1.971136
vt 1.000000 1.000000
vt 0.000000 1.000000
vt 0.000000 0.000000
vt 1.000000 0.000000
vn 0.181540 0.714585 0.675582
vn 0.181541 0.714585 0.675582
usemtl 100
s off
f 97/97/45 98/98/45 99/99/45
f 100/100/46 97/97/46 99/99/46
o Mesh.005_Mesh.007_Mesh.020_Mes
v 2.376735 8.033708 -1.190370
v 4.276713 6.305389 1.024664
v 0.742070 3.517945 1.881607
v -1.157908 5.246264 -0.333418
vt 1.000000 1.000000
vt 0.000000 1.000000
vt 0.000000 0.000000
vt 1.000000 0.000000
vn 0.301974 -0.608523 -0.733833
vn 0.301972 -0.608523 -0.733834
usemtl 100
s off
f 101/101/47 102/102/47 103/103/47
f 104/104/48 101/101/48 103/103/48
o Mesh.004_Mesh.020_Mesh.016_Mes
v -2.821884 7.998951 1.343463
v -3.781618 6.175987 -1.350801
v -0.025326 3.584531 -0.935448
v 0.934408 5.407488 1.758818
vt 1.000000 1.000000
vt 0.000000 1.000000
vt 0.000000 0.000000
vt 1.000000 0.000000
vn -0.497965 -0.625529 0.600620
vn -0.497966 -0.625529 0.600619
usemtl 100
s off
f 105/105/49 106/106/49 107/107/49
f 108/108/50 105/105/50 107/107/50
o Mesh.003_Mesh.029_Mesh.006_Mes
v 0.269853 10.832105 4.165452
v 2.344834 9.736043 1.716690
v -0.640852 6.421055 0.670527
v -2.715833 7.517118 3.119288
vt 1.000000 1.000000
vt 0.000000 1.000000
vt 0.000000 0.000000
vt 1.000000 0.000000
vn -0.448531 0.610099 -0.653146
usemtl 100
s off
f 109/109/51 110/110/51 111/111/51
f 112/112/51 109/109/51 111/111/51
o Mesh.002_Mesh.018_Mesh.027_Mes
v 1.121355 8.328466 3.279752
v 3.791932 6.264559 2.945559
v 1.305532 3.477118 0.291141
v -1.365038 5.541022 0.625335
vt 1.000000 1.000000
vt 0.000000 1.000000
vt 0.000000 0.000000
vt 1.000000 0.000000
vn 0.292561 0.509579 -0.809159
usemtl 100
s off
f 113/113/52 114/114/52 115/115/52
f 116/116/52 113/113/52 115/115/52
o Mesh.001_Mesh.014_Mesh.011_Mes
v 0.030282 8.415417 4.075046
v -2.775831 6.608246 3.472397
v -0.469593 4.029176 0.467799
v 2.336520 5.836355 1.070449
vt 1.000000 1.000000
vt 0.000000 1.000000
vt 0.000000 0.000000
vt 1.000000 0.000000
vn 0.249364 -0.631917 0.733825
vn 0.249365 -0.631917 0.733825
usemtl 100
s off
f 117/117/53 118/118/53 119/119/53
f 120/120/54 117/117/54 119/119/54
