# Blender v2.60 (sub 0) OBJ File: 'planta.blend'
# www.blender.org
mtllib smallBush.mtl
o Circle
v -0.186612 0.231009 -0.437969
v -0.129546 0.236632 -0.075923
v -0.454579 0.204603 0.090491
v -0.712525 0.179185 -0.168705
v -0.546913 0.195505 -0.495311
v -0.423330 0.384894 -0.217483
v -0.100006 0.093799 -0.510702
v -0.024115 0.101277 -0.029225
v -0.456368 0.058682 0.192086
v -0.799407 0.024879 -0.152614
v -0.579162 0.046582 -0.586961
v 0.092417 0.140420 -0.195240
v -0.010974 0.276042 0.183290
v 0.334424 0.290375 0.413211
v 0.651282 0.163611 0.176779
v 0.501713 0.070933 -0.199264
v 0.356780 0.446279 -0.004937
v 0.166733 0.268723 -0.164434
v 0.088989 0.370704 0.120201
v 0.348710 0.381482 0.293089
v 0.586970 0.286162 0.115305
v 0.474503 0.216473 -0.167460
v -0.257269 0.354796 -0.185626
v -0.251467 0.307506 0.153316
v 0.075709 0.301369 0.253667
v 0.272112 0.344865 -0.023255
v 0.066320 0.377885 -0.294753
v -0.024317 0.560707 0.011934
v -0.200582 0.451279 -0.130267
v -0.196219 0.415720 0.124600
v 0.049800 0.411105 0.200058
v 0.197485 0.443811 -0.008172
v 0.042740 0.468641 -0.212325
v -0.351982 0.211917 0.021730
v -0.191943 0.315792 0.318195
v -0.415453 0.265246 0.586118
v -0.713629 0.130132 0.455239
v -0.674402 0.097173 0.106428
v -0.530917 0.360657 0.275836
v -0.262695 0.085714 -0.051402
v -0.049862 0.223855 0.342861
v -0.347103 0.156635 0.699166
v -0.743641 -0.023050 0.525112
v -0.691474 -0.066882 0.061235
v 0.055512 0.077985 0.065127
v -0.242163 0.035440 0.387109
v -0.026009 0.014134 0.770406
v 0.405256 0.043511 0.685314
v 0.455639 0.082973 0.249427
v 0.114782 0.339860 0.455927
v 0.067193 0.201688 0.167035
v -0.156643 0.169697 0.409149
v 0.005894 0.153676 0.697368
v 0.330182 0.175765 0.633383
v 0.368067 0.205439 0.305619
v 0.376641 0.205439 -0.406050
v 0.338757 0.175765 -0.078286
v 0.014468 0.153676 -0.014301
v -0.148068 0.169697 -0.302520
v 0.075767 0.201688 -0.544634
v 0.123356 0.339860 -0.255742
v 0.464213 0.082973 -0.462242
v 0.413831 0.043511 -0.026355
v -0.017434 0.014134 0.058737
v -0.233588 0.035440 -0.324559
v 0.064086 0.077985 -0.646542
vt 0.307842 0.241421
vt 0.660659 0.219348
vt 0.499655 0.471808
vt 0.221367 0.582840
vt 0.513892 0.758902
vt 0.797366 0.553608
vt 0.180879 0.054505
vt 0.797208 0.041418
vt 0.003480 0.648495
vt 0.523634 0.993930
vt 1.005349 0.613283
vn 0.562120 0.761315 0.323069
vn 0.431867 0.748497 -0.503189
vn -0.098056 0.995178 0.000000
vn -0.179662 0.688223 0.702872
vn -0.768364 0.630207 0.111301
vn -0.390393 0.667470 -0.634053
vn 0.666555 0.646962 0.370312
vn 0.517258 0.632252 -0.576769
vn -0.183691 0.563158 0.805628
vn -0.858486 0.496658 0.127598
vn -0.425245 0.539354 -0.726768
vn -0.335643 0.565752 -0.753136
vn 0.489059 0.425733 -0.761254
vn 0.524949 0.274209 -0.805719
vn -0.420362 0.434706 -0.796411
vn -0.543962 0.839015 0.009552
vn -0.659139 0.747948 0.077822
vn 0.151982 0.867916 0.472854
vn 0.138585 0.781060 0.608875
vn 0.790460 0.612476 -0.003510
vn 0.870418 0.488266 0.062777
vn 0.157109 0.942534 -0.294778
vn -0.599353 0.738365 -0.309122
vn 0.191534 0.794794 -0.575823
vn 0.224952 0.686453 -0.691458
vn -0.681570 0.621784 -0.385723
vn -0.585192 0.622761 0.519303
vn -0.665334 0.489303 0.563799
vn 0.214454 0.607776 0.764580
vn 0.251259 0.472091 0.844966
vn 0.694510 0.714072 0.087741
vn 0.801508 0.593951 0.069124
vn -0.023896 0.990051 0.138524
vn 0.404096 0.913785 -0.040895
vn 0.024354 0.667287 -0.744377
vn -0.362194 0.923246 -0.127964
vn -0.126225 0.793847 0.594836
vn -0.833796 0.473220 0.284280
vn -0.740715 0.395001 -0.543382
vn 0.545335 0.838008 -0.017853
vn 0.110050 0.555467 -0.824183
vn -0.062563 0.700522 0.710868
vn -0.873562 0.333018 0.354869
vn -0.766869 0.243385 -0.593829
vn -0.176702 0.750725 -0.636525
vn 0.583056 0.760186 -0.286538
vn 0.679922 0.645650 -0.347545
vn -0.190954 0.634785 -0.748680
vn -0.741966 0.669942 -0.025086
vn -0.838862 0.542192 -0.047853
vn -0.331523 0.629475 0.702719
vn -0.368389 0.495834 0.786370
vn 0.487381 0.685263 0.541124
vn 0.570269 0.559771 0.601184
vn -0.051149 0.995117 0.084170
usemtl Material_planta.tga
s 1
f 2/1/1 1/2/2 6/3/3
f 3/4/4 2/1/1 6/3/3
f 3/4/4 6/3/3 4/5/5
f 5/6/6 4/5/5 6/3/3
f 6/3/3 1/2/2 5/6/6
f 1/2/2 2/1/1 8/7/7
f 1/2/2 8/7/7 7/8/8
f 2/1/1 3/4/4 9/9/9
f 2/1/1 9/9/9 8/7/7
f 3/4/4 4/5/5 10/10/10
f 3/4/4 10/10/10 9/9/9
f 4/5/5 5/6/6 11/11/11
f 4/5/5 11/11/11 10/10/10
f 5/6/6 1/2/2 7/8/8
f 5/6/6 7/8/8 11/11/11
f 18/6/12 22/2/13 16/8/14
f 18/6/12 16/8/14 12/11/15
f 19/5/16 18/6/12 12/11/15
f 19/5/16 12/11/15 13/10/17
f 20/4/18 19/5/16 13/10/17
f 20/4/18 13/10/17 14/9/19
f 21/1/20 20/4/18 14/9/19
f 21/1/20 14/9/19 15/7/21
f 22/2/13 21/1/20 15/7/21
f 22/2/13 15/7/21 16/8/14
f 17/3/22 22/2/13 18/6/12
f 18/6/12 19/5/16 17/3/22
f 20/4/18 17/3/22 19/5/16
f 20/4/18 21/1/20 17/3/22
f 21/1/20 22/2/13 17/3/22
f 29/6/23 33/2/24 27/8/25
f 29/6/23 27/8/25 23/11/26
f 30/5/27 29/6/23 23/11/26
f 30/5/27 23/11/26 24/10/28
f 31/4/29 30/5/27 24/10/28
f 31/4/29 24/10/28 25/9/30
f 32/1/31 31/4/29 25/9/30
f 32/1/31 25/9/30 26/7/32
f 33/2/24 32/1/31 26/7/32
f 33/2/24 26/7/32 27/8/25
f 28/3/33 33/2/24 29/6/23
f 29/6/23 30/5/27 28/3/33
f 31/4/29 28/3/33 30/5/27
f 31/4/29 32/1/31 28/3/33
f 32/1/31 33/2/24 28/3/33
f 35/1/34 34/2/35 39/3/36
f 36/4/37 35/1/34 39/3/36
f 36/4/37 39/3/36 37/5/38
f 38/6/39 37/5/38 39/3/36
f 39/3/36 34/2/35 38/6/39
f 34/2/35 35/1/34 41/7/40
f 34/2/35 41/7/40 40/8/41
f 35/1/34 36/4/37 42/9/42
f 35/1/34 42/9/42 41/7/40
f 36/4/37 37/5/38 43/10/43
f 36/4/37 43/10/43 42/9/42
f 37/5/38 38/6/39 44/11/44
f 37/5/38 44/11/44 43/10/43
f 38/6/39 34/2/35 40/8/41
f 38/6/39 40/8/41 44/11/44
f 51/6/45 55/2/46 49/8/47
f 51/6/45 49/8/47 45/11/48
f 52/5/49 51/6/45 45/11/48
f 52/5/49 45/11/48 46/10/50
f 53/4/51 52/5/49 46/10/50
f 53/4/51 46/10/50 47/9/52
f 54/1/53 53/4/51 47/9/52
f 54/1/53 47/9/52 48/7/54
f 55/2/46 54/1/53 48/7/54
f 55/2/46 48/7/54 49/8/47
f 50/3/55 55/2/46 51/6/45
f 51/6/45 52/5/49 50/3/55
f 53/4/51 50/3/55 52/5/49
f 53/4/51 54/1/53 50/3/55
f 54/1/53 55/2/46 50/3/55
f 57/1/53 56/2/46 61/3/55
f 58/4/51 57/1/53 61/3/55
f 58/4/51 61/3/55 59/5/49
f 60/6/45 59/5/49 61/3/55
f 61/3/55 56/2/46 60/6/45
f 56/2/46 57/1/53 63/7/54
f 56/2/46 63/7/54 62/8/47
f 57/1/53 58/4/51 64/9/52
f 57/1/53 64/9/52 63/7/54
f 58/4/51 59/5/49 65/10/50
f 58/4/51 65/10/50 64/9/52
f 59/5/49 60/6/45 66/11/48
f 59/5/49 66/11/48 65/10/50
f 60/6/45 56/2/46 62/8/47
f 60/6/45 62/8/47 66/11/48
