# Blender v2.60 (sub 0) OBJ File: ''
# www.blender.org
mtllib tree.mtl
o Mesh.001_Cylinder_1.001
v 0.419201 1.139698 -0.336816
v 0.552635 0.055765 -0.336816
v 0.380655 0.055765 -0.752005
v 0.286301 1.139698 -0.657657
v -0.034534 0.055765 -0.923985
v -0.034534 1.139699 -0.790551
v -0.449729 0.055765 -0.752005
v -0.355375 1.139698 -0.657657
v -0.621703 0.055765 -0.336816
v -0.488275 1.139698 -0.336816
v -0.449729 0.055765 0.078372
v -0.355375 1.139698 -0.015975
v -0.034534 0.055765 0.250352
v -0.034534 1.139698 0.116918
v 0.380655 0.055765 0.078372
v 0.286301 1.139698 -0.015975
v -0.028549 4.484278 -0.343268
v 0.300399 4.553678 -0.336816
v 0.150418 4.612421 -0.589692
v 0.409039 5.302565 -1.341662
v 0.568362 5.295099 -1.516798
v 0.286781 5.326859 -1.618091
v 0.016230 4.649133 -0.638754
v -0.271370 4.553678 -0.573652
v -0.345880 4.674695 -0.257408
v -1.227020 5.497551 -0.428474
v -1.473204 5.495543 -0.406035
v -1.392415 5.450811 -0.153312
v -0.298139 4.598216 -0.151484
v -0.003247 4.578112 -0.015514
v 0.072097 5.252355 0.379477
v 0.094530 5.250347 0.625661
v 0.497354 5.231557 0.542583
v 0.156129 4.709131 -0.103089
vt 1.066690 -1.196240
vt 1.233330 -2.550000
vt 1.018540 -2.550000
vt 0.900710 -1.196240
vt 0.500000 -2.550000
vt 0.500000 -1.196240
vt -0.018540 -2.550000
vt 0.099290 -1.196240
vt -0.233330 -2.550000
vt -0.066690 -1.196240
vt 0.507480 2.980910
vt 0.918310 3.067590
vt 0.731000 3.140950
vt 1.053990 4.002890
vt 1.252980 3.993570
vt 0.901310 4.033240
vt 0.563400 3.186810
vt 0.204210 3.067590
vt 0.111150 3.218730
vt -0.989330 4.246420
vt -1.296800 4.243910
vt -1.195900 4.188040
vt 0.170780 3.123210
vt 0.539070 3.098110
vt 0.633170 3.940180
vt 0.661200 3.937680
vt 1.164290 3.914210
vt 0.738130 3.261740
vn 0.996612 0.082156 0.001648
vn 0.992492 0.122166 0.000000
vn 0.701804 0.122166 -0.701804
vn 0.704733 0.079775 -0.704947
vn 0.000000 0.122166 -0.992492
vn -0.001892 0.083224 -0.996521
vn -0.701804 0.122166 -0.701804
vn -0.703207 0.082766 -0.706107
vn -0.992492 0.122166 0.000000
vn -0.996887 0.078646 -0.000519
vn -0.701804 0.122166 0.701804
vn -0.703238 0.081271 0.706259
vn 0.000000 0.122166 0.992492
vn -0.001587 0.082095 0.996612
vn 0.701804 0.122166 0.701804
vn 0.705863 0.082339 0.703513
vn -0.020356 0.999176 -0.034852
vn 0.813593 0.578753 -0.055605
vn 0.874172 0.394787 -0.282693
vn 0.095889 0.853175 0.512711
vn 0.868496 0.178045 -0.462569
vn -0.456038 0.317118 -0.831507
vn -0.615528 0.456282 -0.642537
vn -0.555925 0.588458 -0.587054
vn -0.770501 -0.492203 -0.404981
vn 0.366802 0.693228 -0.620350
vn -0.851833 0.304483 -0.426160
vn -0.492019 0.203253 0.846492
vn -0.383984 0.590594 0.709738
vn -0.271004 0.159062 0.949309
vn -0.531541 0.768303 -0.356517
vn -0.404614 0.290017 0.867244
vn 0.918790 0.202948 0.338511
vn 0.452742 0.866085 0.211921
usemtl 3.001
s 1
f 1/1/1 2/2/2 3/3/3
f 4/4/4 3/3/3 5/5/5
f 6/6/6 5/5/5 7/7/7
f 8/8/8 7/7/7 9/9/9
f 10/10/10 9/9/9 11/7/11
f 12/8/12 11/7/11 13/5/13
f 14/6/14 13/5/13 15/3/15
f 16/4/16 15/3/15 2/2/2
f 1/1/1 3/3/3 4/4/4
f 4/4/4 5/5/5 6/6/6
f 6/6/6 7/7/7 8/8/8
f 8/8/8 9/9/9 10/10/10
f 10/10/10 11/7/11 12/8/12
f 12/8/12 13/5/13 14/6/14
f 14/6/14 15/3/15 16/4/16
f 2/2/2 1/1/1 16/4/16
f 17/11/17 18/12/18 19/13/19
f 20/14/20 21/15/21 22/16/22
f 17/11/17 23/17/23 24/18/24
f 17/11/17 24/18/24 25/19/25
f 26/20/26 27/21/27 28/22/28
f 17/11/17 29/23/29 30/24/30
f 31/25/31 32/26/32 33/27/33
f 17/11/17 34/28/34 18/12/18
f 1/1/1 4/4/4 18/12/18
f 18/12/18 4/4/4 19/13/19
f 16/4/16 1/1/1 34/28/34
f 34/28/34 1/1/1 18/12/18
f 4/4/4 6/6/6 19/13/19
f 19/13/19 6/6/6 23/17/23
f 6/6/6 8/8/8 23/17/23
f 23/17/23 8/8/8 24/18/24
f 8/8/8 10/10/10 24/18/24
f 24/18/24 10/10/10 25/19/25
f 10/10/10 12/8/12 25/19/25
f 25/19/25 12/8/12 29/23/29
f 12/8/12 14/6/14 29/23/29
f 29/23/29 14/6/14 30/24/30
f 14/6/14 16/4/16 30/24/30
f 30/24/30 16/4/16 34/28/34
f 17/11/17 19/13/19 20/14/20
f 20/14/20 19/13/19 21/15/21
f 23/17/23 17/11/17 22/16/22
f 22/16/22 17/11/17 20/14/20
f 17/11/17 25/19/25 26/20/26
f 26/20/26 25/19/25 27/21/27
f 29/23/29 17/11/17 28/22/28
f 28/22/28 17/11/17 26/20/26
f 17/11/17 30/24/30 31/25/31
f 31/25/31 30/24/30 32/26/32
f 34/28/34 17/11/17 33/27/33
f 33/27/33 17/11/17 31/25/31
f 19/13/19 23/17/23 21/15/21
f 21/15/21 23/17/23 22/16/22
f 25/19/25 29/23/29 27/21/27
f 27/21/27 29/23/29 28/22/28
f 30/24/30 34/28/34 32/26/32
f 32/26/32 34/28/34 33/27/33
